<?xml version="1.0" encoding="UTF-8" standalone="no"?>
<!-- Created with Inkscape (http://www.inkscape.org/) -->

<svg xmlns:dc="http://purl.org/dc/elements/1.1/" xmlns:cc="http://creativecommons.org/ns#" xmlns:rdf="http://www.w3.org/1999/02/22-rdf-syntax-ns#" xmlns:svg="http://www.w3.org/2000/svg" xmlns="http://www.w3.org/2000/svg" xmlns:xlink="http://www.w3.org/1999/xlink" xmlns:sodipodi="http://sodipodi.sourceforge.net/DTD/sodipodi-0.dtd" xmlns:inkscape="http://www.inkscape.org/namespaces/inkscape" width="96" height="96" id="svg2" version="1.1" inkscape:version="0.48+devel r" viewBox="0 0 96 96.00000000000004" sodipodi:docname="iconbg.svg" inkscape:export-filename="/home/therufuser/gabbadigab/iconbg.png" inkscape:export-xdpi="90" inkscape:export-ydpi="90">
    <sodipodi:namedview id="base" pagecolor="#ffffff" bordercolor="#666666" borderopacity="1.0" inkscape:pageopacity="0.0" inkscape:pageshadow="2" inkscape:zoom="8.458333333333334" inkscape:cx="46.28571428571428" inkscape:cy="47.29120684863115" inkscape:document-units="px" inkscape:current-layer="layer1" showgrid="false" inkscape:window-width="1278" inkscape:window-height="974" inkscape:window-x="0" inkscape:window-y="0" inkscape:window-maximized="1" />
    <defs id="defs4">
        <linearGradient inkscape:collect="always" id="linearGradient4141">
            <stop style="stop-color:#e79a28;stop-opacity:1" offset="0" id="stop4143" />
            <stop style="stop-color:#ca9445;stop-opacity:1" offset="1" id="stop4145" />
        </linearGradient>
        <radialGradient inkscape:collect="always" xlink:href="#linearGradient4141" id="radialGradient4147" cx="48" cy="1004.362182617188" fx="48" fy="1004.362182617188" r="44" gradientUnits="userSpaceOnUse" gradientTransform="translate(2.131628207280301e-14,-956.3621826171875)" />
    </defs>
    <metadata id="metadata7">
        <rdf:RDF>
            <cc:Work rdf:about="">
                <dc:format>image/svg+xml</dc:format>
                <dc:type rdf:resource="http://purl.org/dc/dcmitype/StillImage" />
                <dc:title></dc:title>
            </cc:Work>
        </rdf:RDF>
    </metadata>
    <g inkscape:label="Layer 1" inkscape:groupmode="layer" id="layer1" transform="translate(0,-956.3621826171879)">
        <rect style="opacity:1;fill:#73d216;fill-opacity:1;stroke:none;stroke-width:14.1732282639;stroke-linecap:butt;stroke-linejoin:miter;stroke-miterlimit:4;stroke-dasharray:none;stroke-opacity:1" id="rect4139" width="48" height="48" x="24" y="980.3621826171875" />
        <path style="opacity:1;fill:url(#radialGradient4147);fill-opacity:1;stroke:#2a4464;stroke-width:8;stroke-linecap:butt;stroke-linejoin:miter;stroke-miterlimit:4;stroke-dasharray:none;stroke-opacity:1" d="M 18.17340525119999,18.24022797934284 C 10.7432474267286,25.84780691326942 7.096025965228869,37.65839312085067 7.451232896681427,48.2864846978143 7.799728413563523,58.71376507896552 12.57230531875093,69.58567364150233 19.91557920385714,76.9968782615857 27.50571806112518,84.65723153809237 38.70557422356947,89.527581698687 49.47126646917143,90.15295412091431 59.47180256421739,90.73387909430702 71.05753354098685,88.26061805336512 78.15671021775708,81.19309468764286 86.2690744846465,73.11690126156582 89.20762538913817,59.88745315695099 88.54169017515714,48.45977252854287 87.95724897310176,38.43055757947114 83.34143482502159,28.00279056571683 76.15246325994286,20.98528304168573 68.12330631352112,13.14762938384653 56.36077196215992,8.078597004266345 45.14196476452143,7.892744394040708 35.51477700208354,7.73325881386619 24.90099283854807,11.35199561406382 18.17340525119999,18.24022797934284 Z" transform="translate(-2.131628207280301e-14,956.3621826171879)" id="path4137" inkscape:connector-curvature="0" sodipodi:nodetypes="aaaaaaaaa" />
        <path style="opacity:1;fill:#2a4464;fill-opacity:1;stroke:none;stroke-width:8;stroke-linecap:butt;stroke-linejoin:miter;stroke-miterlimit:4;stroke-dasharray:none;stroke-opacity:1" d="m 36.63595602,1009.40682332 c -1.9021545935,2.08969115 -6.0513824734,3.5485793 -8.7414352972,3.5485793 -2.6900528239,0 -5.5887548969,-1.81777818 -7.4909094904,-3.90746933 -1.9021545935,-2.08969115 -2.5641951787,-4.2081671 -2.5641951787,-7.16343667 0,-2.9552695670002 0.6783387764,-6.799272715 2.5804933699,-8.888963866 1.9021545935,-2.0896911510001 6.4250417761,-2.7944776120002 9.1150946,-2.7944776120002 2.6900528238,0 5.3063520521,0.905752355 7.2085066456,2.995443506 1.9021545935,2.089691151 1.1432398485,5.4861238800001 1.12448320615,8.4115307660002 -0.01875664235,2.925406886 0.67011673815,5.709102756 -1.23203785535,7.798793906 z" id="path5912" inkscape:connector-curvature="0" sodipodi:nodetypes="ssssssscs" />
        <path style="opacity:1;fill:#2a4464;fill-opacity:1;stroke:none;stroke-width:8;stroke-linecap:butt;stroke-linejoin:miter;stroke-miterlimit:4;stroke-dasharray:none;stroke-opacity:1" d="m 68.2547567272,996.982267535 c -1.7012228105,1.8887591889999 -3.8359452096,2.925190112 -6.2418375809,2.925190112 -5.01001150869999,0 -8.3005962915,-5.4203669940001 -8.3005962915,-10.9826632530001 0,-5.5622962580001 3.8433081067,-9.5081724170001 8.8533196154,-9.5081724170001 2.40589237130001,0 4.2102356012,1.396119407 5.9114584117,3.284878596 1.7012228106,1.888759189 2.08571616579999,2.533867622 2.42272603014997,6.145385069 C 71.23683677639999,992.4584030889999 69.9559795378,995.093508346 68.2547567272,996.982267535 Z" id="path5914" inkscape:connector-curvature="0" sodipodi:nodetypes="ssssscs" />
        <path style="opacity:1;fill:#2a4464;fill-opacity:1;stroke:none;stroke-width:8;stroke-linecap:butt;stroke-linejoin:miter;stroke-miterlimit:4;stroke-dasharray:none;stroke-opacity:1" d="m 58.0877487246,1037.47356837 c -4.33818365099999,0 -8.80747316439999,-3.11714862 -11.8750322421,-5.83642628 -3.0675590777,-2.71927767 -6.081859077,-5.99529618 -6.081859077,-9.84093554 0,-3.84563935 1.5931369907,-7.00289274 4.6606960684,-9.72217041 3.0675590777,-2.71927766 7.4939118795,-3.603566 11.8320955305,-3.603566 4.338183651,0 10.2112723209,0.64457188 13.27883139859998,3.36384954 3.06755907770001,2.71927767 4.6706261267,6.09854411 3.82314248555002,12.00730601 C 72.8781392474,1029.75038759 67.121548523,1037.47356837 58.0877487246,1037.47356837 Z" id="path5916" inkscape:connector-curvature="0" sodipodi:nodetypes="sssssscs" />
    </g>
</svg>
